<svg width="60" height="60" viewBox="0 0 60 60" fill="none" xmlns="http://www.w3.org/2000/svg">
<path d="M9.64514 9.97724C6.77598 10.746 4.59929 12.4291 3.36898 14.7439C2.14694 17.0432 1.94136 19.8069 2.69435 22.6171L6.27844 35.9931C7.03089 38.8013 8.58613 41.0936 10.793 42.4751C13.0153 43.8661 15.7426 44.2346 18.6179 43.4641L32.8145 39.6601C35.69 38.8897 37.8675 37.207 39.0966 34.8912C40.317 32.5914 40.5178 29.8285 39.7653 27.0203L36.1812 13.6443C35.4288 10.8361 33.8735 8.54389 31.6667 7.16239C29.4443 5.77125 26.7172 5.40281 23.8418 6.17327L9.64514 9.97724Z" fill="#E3B341"/>
<path d="M27.7752 52.2782C26.5489 51.5107 25.5237 50.4617 24.7257 49.1992C24.3403 48.5895 24.7009 47.8133 25.3977 47.6266L34.3084 45.239C38.5601 44.0997 42.1378 41.4808 44.1989 37.5973C46.2213 33.786 46.4054 29.4804 45.3449 25.5225L43.0473 16.9478C42.8627 16.2588 43.3421 15.5631 44.055 15.5864C45.7222 15.6407 47.2813 16.1094 48.6489 16.9657C50.8558 18.3472 52.411 20.6394 53.1635 23.4476L56.7476 36.8236C57.5 39.6318 57.2992 42.3945 56.0788 44.6943C54.8498 47.0103 52.6722 48.693 49.7968 49.4635L35.6002 53.2674C32.7248 54.0379 29.9975 53.6694 27.7752 52.2782Z" fill="#E3B341"/>
<path fill-rule="evenodd" clip-rule="evenodd" d="M29.3911 14.014C30.7852 14.7901 31.2862 16.5494 30.5101 17.9435L22.6822 32.0048C22.3018 32.6879 21.6609 33.1877 20.9057 33.3901C20.1504 33.5924 19.3454 33.4801 18.6745 33.0786L12.5368 29.4059C11.1677 28.5867 10.7219 26.8126 11.5411 25.4434C12.3604 24.0743 14.1345 23.6285 15.5037 24.4478L19.0836 26.5899L25.4616 15.133C26.2377 13.7389 27.9969 13.238 29.3911 14.014Z" fill="#0E0E0E"/>
</svg>
