<svg width="14" height="14" viewBox="0 0 14 14" fill="none" xmlns="http://www.w3.org/2000/svg">
    <path fill-rule="evenodd" clip-rule="evenodd" d="M1.9366 3.52544C1.9366 2.64791 2.6476 1.93689 3.52512 1.93618H4.24806C4.6675 1.93618 5.06937 1.76967 5.36726 1.47458L5.87241 0.96872C6.49138 0.346227 7.49747 0.343417 8.11995 0.962397L8.12065 0.9631L8.12697 0.96872L8.63282 1.47458C8.93072 1.77037 9.33259 1.93618 9.75202 1.93618H10.4743C11.3518 1.93618 12.0635 2.6472 12.0635 3.52544V4.247C12.0635 4.66644 12.2293 5.06902 12.5251 5.36692L13.0309 5.87278C13.6534 6.49176 13.6569 7.49787 13.038 8.12036L13.0373 8.12106L13.0309 8.12739L12.5251 8.63325C12.2293 8.93045 12.0635 9.33233 12.0635 9.75177V10.4747C12.0635 11.3523 11.3525 12.0633 10.475 12.0633H10.4743H9.75062C9.33118 12.0633 8.92861 12.2298 8.63142 12.5256L8.12557 13.0307C7.5073 13.6532 6.50192 13.6568 5.87944 13.0392C5.87874 13.0385 5.87803 13.0378 5.87733 13.0371L5.87101 13.0307L5.36586 12.5256C5.06867 12.2298 4.6661 12.064 4.24666 12.0633H3.52512C2.6476 12.0633 1.9366 11.3523 1.9366 10.4747V9.75037C1.9366 9.33092 1.77009 8.92904 1.4743 8.63185L0.969153 8.12598C0.346673 7.50771 0.34316 6.5023 0.961425 5.87981C0.961425 5.87911 0.962127 5.8784 0.96283 5.8777L0.969153 5.87138L1.4743 5.36552C1.77009 5.06762 1.9366 4.66574 1.9366 4.24559V3.52544Z" fill="white"/>
    <path d="M1.9366 3.52544C1.9366 2.64791 2.6476 1.93689 3.52512 1.93618H4.24806C4.6675 1.93618 5.06937 1.76967 5.36726 1.47458L5.87241 0.96872C6.49138 0.346227 7.49747 0.343417 8.11995 0.962397L8.12065 0.9631L8.12697 0.96872L8.63283 1.47458C8.93072 1.77037 9.33259 1.93618 9.75202 1.93618H10.4743C11.3518 1.93618 12.0635 2.6472 12.0635 3.52544V4.247C12.0635 4.66644 12.2293 5.06902 12.5251 5.36692L13.0309 5.87278C13.6534 6.49176 13.6569 7.49787 13.038 8.12036L13.0373 8.12106L13.0309 8.12739L12.5251 8.63325C12.2293 8.93045 12.0635 9.33233 12.0635 9.75177V10.4747C12.0635 11.3523 11.3525 12.0633 10.475 12.0633H10.4743H9.75062C9.33118 12.0633 8.92861 12.2298 8.63142 12.5256L8.12557 13.0307C7.5073 13.6532 6.50192 13.6568 5.87944 13.0392C5.87874 13.0385 5.87803 13.0378 5.87733 13.0371L5.87101 13.0307L5.36586 12.5256C5.06867 12.2298 4.6661 12.064 4.24666 12.0633H3.52512C2.6476 12.0633 1.9366 11.3523 1.9366 10.4747V9.75037C1.9366 9.33092 1.77009 8.92904 1.4743 8.63185L0.969153 8.12598C0.346673 7.50771 0.34316 6.5023 0.961425 5.87981C0.961425 5.87911 0.962127 5.8784 0.96283 5.8777L0.969153 5.87138L1.4743 5.36552C1.77009 5.06762 1.9366 4.66574 1.9366 4.24559V3.52544" stroke="white" stroke-linecap="round" stroke-linejoin="round"/>
    <path d="M4.60542 6.99178L6.20233 8.7023L9.3948 5.28125" stroke="#514DF7" stroke-linecap="round" stroke-linejoin="round"/>
</svg>
