<svg width="60" height="70" viewBox="0 0 60 70" fill="none" xmlns="http://www.w3.org/2000/svg">
<path fill-rule="evenodd" clip-rule="evenodd" d="M43.2852 4.62935L27.9847 0.529358C20.1167 -1.60774 11.9849 2.91832 9.6967 10.7155L9.67698 10.7857L0.588771 44.704C-1.6982 52.6183 2.87133 60.9033 10.8133 63.2211L33.761 69.3687C41.7461 71.1659 49.7138 66.3335 51.7742 58.4412L58.8812 31.4085C59.9206 27.455 59.3489 23.2494 57.2911 19.709L52.7158 11.8383C50.6516 8.287 47.2599 5.69442 43.2852 4.62935ZM14.3155 38.509C14.8689 36.4438 16.9975 35.22 19.07 35.7753L40.0842 41.4061C42.1568 41.9614 43.3882 44.0855 42.8349 46.1508C42.2815 48.216 40.153 49.4399 38.0804 48.8845L17.0662 43.2538C14.9937 42.6984 13.7621 40.5743 14.3155 38.509ZM23.0777 20.8184C21.0052 20.2631 18.8766 21.487 18.3232 23.5521C17.7699 25.6173 19.0014 27.7415 21.0738 28.2969L30.0799 30.71C32.1524 31.2654 34.2811 30.0414 34.8344 27.9763C35.3878 25.9112 34.1563 23.7869 32.0838 23.2316L23.0777 20.8184Z" fill="#298FFF"/>
</svg>
