<svg width="67" height="67" viewBox="0 0 67 67" fill="none" xmlns="http://www.w3.org/2000/svg">
<path fill-rule="evenodd" clip-rule="evenodd" d="M28.7952 0.693846C23.7468 -0.658867 18.9492 -0.00910643 15.038 2.43578C11.153 4.86425 8.40831 8.89482 7.08339 13.8395L0.777081 37.375C-0.546928 42.3162 -0.193725 47.1773 1.95372 51.224C4.11615 55.299 7.94794 58.2597 13.0072 59.6153L37.9867 66.3085C43.0461 67.6642 47.8448 67.0161 51.7552 64.5682C55.6381 62.1374 58.3745 58.1042 59.6986 53.1629L66.0049 29.6274C67.3289 24.6862 66.9756 19.8251 64.8283 15.7785C62.6658 11.7035 58.834 8.74272 53.7746 7.38706L28.7952 0.693846ZM53.7827 50.6501C53.646 49.836 53.3258 49.021 52.784 48.2371C51.3631 46.1855 50.0347 44.2691 48.2795 42.6456C45.5324 40.0778 42.4093 41.8133 41.5356 42.4017C40.8307 42.8774 40.1751 43.4232 39.509 43.9776C39.3786 44.0861 39.2481 44.1948 39.1165 44.3033L39.077 44.3361C37.1199 45.9612 34.8712 47.8285 31.7004 48.4221C27.0693 49.2616 24.4276 46.6372 22.5315 44.7329C21.8189 44.0217 21.124 43.3408 20.3903 42.8165C18.5786 41.5365 16.5438 41.8958 13.079 44.0884C11.2629 45.2326 9.4622 46.3671 7.6449 47.4914C6.55751 48.1668 6.38814 49.6055 7.36764 50.5124C8.9312 51.9602 11.0151 53.0671 13.525 53.7396L38.7479 60.498C40.1715 60.8795 41.6418 61.0981 43.1045 61.0802C46.3971 61.0467 49.3526 59.7438 51.3157 57.4969C52.9695 55.6109 54.1967 53.1129 53.7827 50.6501ZM20.2146 20.9489C19.1784 24.816 21.4781 28.8055 25.3463 29.842C29.2117 30.8778 33.2009 28.5734 34.2371 24.7062C35.2733 20.8391 32.9707 16.8488 29.1054 15.8131C25.2372 14.7766 21.2508 17.0818 20.2146 20.9489Z" fill="#E85AAD"/>
</svg>
