<?xml version="1.0" encoding="utf-8"?>
<svg xmlns="http://www.w3.org/2000/svg" xmlns:xlink="http://www.w3.org/1999/xlink" width="128" height="128" viewBox="0 0 1024 1024">
  <path fill="#017DFD" d="M283.08 518.322C285.532 518.441 289.083 520.697 291.291 521.901C319.955 537.531 337.717 563.492 360.437 586.258L407.174 632.5C413.951 639.193 425.766 650.231 431.561 657.217C420.659 667.048 411.133 677.407 400.987 687.958C390.554 698.796 380.006 709.522 369.346 720.135C368.151 721.296 368.715 721.053 367.235 721.43C354.562 706.954 336.429 691.073 322.55 677.283C315.357 671.313 308.498 662.106 301.225 656.516C269.769 632.339 241.364 616.058 222.442 579.096C231.192 571.648 240.324 561.937 248.556 553.716C260.18 542.109 271.99 530.414 283.08 518.322Z"/>
  <!-- <path fill="#FAF9F2" d="M285.16 557.206C298.797 554.766 311.844 563.797 314.361 577.419C316.879 591.041 307.922 604.139 294.314 606.734C280.597 609.35 267.37 600.305 264.832 586.573C262.294 572.841 271.414 559.666 285.16 557.206Z"/> -->
  <!-- <path fill="#017DFD" d="M614.283 444.198C667.894 441.163 693.839 502.263 666.119 544.268C647.162 572.995 604.828 579.899 578.964 556.725C578.608 566.61 578.922 577.775 578.983 587.75L578.952 627.681C571.537 627.494 563.871 627.542 556.434 627.496L556.494 445.573L578.443 445.609L578.603 461.418C589.645 450.436 598.583 445.702 614.283 444.198Z"/> -->
  <!-- <path fill="#FAF9F2" d="M610.174 465.166C649.803 461.627 664.472 502.004 646.865 533.247C641.549 542.679 631.897 547.729 621.468 549.874C593.54 553.561 576.609 536.37 577.013 508.864C577.34 486.679 586.745 468.494 610.174 465.166Z"/> -->
  <path fill="#017DFD" d="M504.328 232.222C563.8 230.544 622.306 247.52 671.642 280.772C680.403 286.714 687.737 292.853 695.91 299.621C699.544 297.022 701.814 295.543 706.445 294.735C711.667 293.772 717.055 295.002 721.342 298.135C725.911 301.567 728.906 306.695 729.649 312.361C730.42 318.082 728.932 323.4 725.489 327.984C732.311 337.728 739.497 345.761 746.641 356.503C769.753 391.579 784.841 431.321 790.831 472.897C800.043 540.03 785.22 608.259 748.982 665.518C742.867 675.174 732.977 687.086 725.849 696.582C739.945 720.807 715.923 739.561 696.546 726.333C693.896 727.999 687.963 732.975 685.05 735.251C678.677 740.311 672.052 745.044 665.2 749.433C622.947 776.441 574.428 792.064 524.355 794.787C473.118 797.155 422.166 785.937 376.661 762.269C370.149 758.944 356.025 751.83 350.759 747.116C351.654 745.554 352.804 743.873 353.793 742.345C360.746 745.576 370.676 752.088 378.331 756.009C406.88 770.637 436.852 781.074 468.672 785.732C533.181 795.186 598.976 782.051 654.91 748.552C669.102 740.04 679.363 731.635 692.382 721.958C690.473 717.708 689.271 714.092 689.648 709.362C690.11 703.937 692.734 698.926 696.93 695.456C700.793 692.239 707.468 689.385 712.496 690.603C714.818 691.165 717.802 691.641 720.172 692.046C721.45 692.264 721.495 691.757 722.546 690.73C730.979 680.183 739.296 669.801 746.397 658.272C808.391 557.626 800.104 422.198 720.758 333.028L720.333 333.205C714.116 335.728 707.463 336.346 701.215 333.524C696.257 331.267 692.408 327.118 690.53 322.005C687.981 315.229 689.429 310.425 692.207 304.33C645.55 263.213 581.938 239.934 520 238.406C464.297 236.636 409.377 251.889 362.564 282.131C352.027 288.988 342.67 295.486 333.542 304.16C336.202 310.303 337.43 315.249 334.927 321.935C332.665 327.83 328.065 332.528 322.219 334.914C315.167 337.845 309.226 336.726 302.547 333.849C261.19 389.272 244.647 426.785 237.317 496.077C235.432 495.947 233.224 495.626 231.319 495.401C233.833 434.432 260.675 376.755 298.541 329.896C295.869 326.583 294.274 323.765 293.538 319.483C292.593 313.76 293.993 307.898 297.422 303.221C305.087 292.59 318.507 291.217 328.711 299.169C380.978 256.287 436.971 235.303 504.328 232.222Z"/>
  <g transform="translate(54, 24)">
    <path fill="#017DFD" d="M370.584 382.049C378.129 381.858 388.646 382.447 396.579 382.502C400.071 393.655 408.127 410.968 412.727 422.6L456.771 530.983C458.675 525.142 461.534 519.11 463.977 513.422L476.711 483.639L520.336 382.081L546.099 382.089C540.143 394.8 535.077 407.786 528.848 420.866C507.285 472.969 483.529 524.667 461.185 576.476C460.157 578.86 458.128 584.023 456.492 585.776L455.763 585.577C451.934 581.019 434.277 536.58 430.636 527.996C410.185 479.776 391.439 430.063 370.584 382.049Z"/>
  </g>
    <path fill="#017DFD" d="M432.382 667.283C433.481 667.991 433.802 668.307 434.728 669.119C459.704 691.001 467.357 718.454 469.128 750.462C446.31 751.656 423.7 745.601 404.532 733.165C396.512 727.459 391.161 722.901 385.748 714.731C389.076 711.812 392.071 708.629 395.15 705.454C406.672 716.86 425.729 721.158 441.321 722.721C439.053 706.493 432.049 690.592 422.516 677.346C426.267 673.799 428.979 671.222 432.382 667.283Z"/>
  <path fill="#017DFD" d="M200.926 501.49C226.597 501.955 252.664 504.944 276.417 515.345C267.094 523.656 257.34 533.9 248.357 542.83C238.949 552.214 227.951 562.131 219.171 571.998C209.653 548.765 201.588 527.259 200.926 501.49Z"/>
  <path fill="#017DFD" d="M281.94 660.386C284.63 661.692 292.612 669.08 295.144 671.408C309.805 684.894 324.192 698.895 338.279 712.981C343.736 718.437 354.085 726.956 358.479 732.724C351.566 739.202 347.757 743.47 341.795 750.768C337.347 756.594 332.864 762.393 328.346 768.164L299.008 701.276C295.169 692.596 284.035 668.727 281.94 660.386Z"/>
  <path fill="#017DFD" d="M377.709 582.923C381.762 583.439 397.829 589.152 403.116 590.727L480.75 613.978C475.974 617.554 467.755 625.321 462.782 629.606C455.881 635.304 448.872 640.82 442.68 647.281C422.6 625.778 398.278 604.22 377.709 582.923Z"/>
  <path fill="#017DFD" d="M414.535 686.353L415.156 686.661C417.056 689.285 420.075 695.917 419.738 699.263C419.266 703.945 413.666 702.223 410.602 701.685C407.289 700.561 405.629 699.617 402.88 697.503C406.17 694.034 410.917 689.317 414.535 686.353Z"/>
</svg>
