<svg width="68" height="65" viewBox="0 0 68 65" fill="none" xmlns="http://www.w3.org/2000/svg">
<path fill-rule="evenodd" clip-rule="evenodd" d="M16.0073 59.7153C27.982 66.6327 42.5196 64.9248 52.548 56.5639C53.1018 56.1476 55.0383 55.8975 57.3527 55.5986C61.3376 55.0839 66.4429 54.4246 67.5424 52.5228C68.6417 50.6188 66.6582 45.8657 65.1107 42.1569C64.2122 40.0036 63.4607 38.2024 63.5443 37.5146C65.7738 24.6504 59.9797 11.2022 48.0028 4.28888C32.7119 -4.54343 13.1203 0.70612 4.29401 16.0006C-4.55213 31.3204 0.717158 50.8863 16.0073 59.7153ZM16.0534 28.3936C15.5088 26.3613 16.7148 24.2725 18.7471 23.7279L27.5784 21.3616C29.6108 20.817 31.6996 22.023 32.2441 24.0553C32.7887 26.0876 31.5828 28.1764 29.5504 28.721L20.7191 31.0874C18.6868 31.6319 16.5979 30.4259 16.0534 28.3936ZM22.691 38.4468C20.6588 38.9913 19.4527 41.0801 19.9973 43.1125C20.5419 45.1449 22.6307 46.3508 24.663 45.8062L45.2694 40.2848C47.3018 39.7402 48.5077 37.6514 47.9631 35.6191C47.4185 33.5867 45.3298 32.3807 43.2974 32.9253L22.691 38.4468Z" fill="#E85AAD"/>
</svg>
