<svg width="54" height="54" viewBox="0 0 54 54" fill="none" xmlns="http://www.w3.org/2000/svg">
<path fill-rule="evenodd" clip-rule="evenodd" d="M10.825 2.23405C13.8888 0.150583 17.7197 -0.519384 21.8138 0.410241L42.0714 5.01002C46.1744 5.94167 49.3417 8.19971 51.2036 11.4037C53.0524 14.5854 53.4863 18.4764 52.5764 22.4836L48.2425 41.5703C47.3326 45.5775 45.2609 48.8995 42.2193 50.9708C39.1563 53.0566 35.3244 53.7253 31.2214 52.7937L10.9638 48.1939C6.86085 47.2623 3.69356 45.0043 1.83175 41.8003C-0.0171559 38.6185 -0.451045 34.7275 0.458854 30.7203L4.79274 11.6337C5.70327 7.6237 7.78171 4.30352 10.825 2.23405ZM36.2961 26.7808L24.3769 15.1806C23.0711 13.9097 20.8776 14.5592 20.4741 16.3361L16.6332 33.2513C16.2298 35.0282 17.9277 36.5613 19.6543 35.9788L35.4143 30.664C37.0678 30.1063 37.5465 27.9977 36.2961 26.7808Z" fill="#A371F7"/>
</svg>
