<svg width="24" height="24" viewBox="0 0 24 24" fill="none" xmlns="http://www.w3.org/2000/svg">
<path d="M3.62983 14.1638C2.92876 13.6673 3.2237 12.5666 4.07909 12.4872L6.992 12.2166C7.26093 12.1916 7.50553 12.0504 7.66163 11.83L9.35237 9.44263C9.84887 8.74156 10.9496 9.0365 11.029 9.89189L11.2996 12.8048C11.3245 13.0737 11.4658 13.3183 11.6862 13.4744L14.0736 15.1652C14.7746 15.6617 14.4797 16.7624 13.6243 16.8418L10.7114 17.1124C10.4425 17.1373 10.1979 17.2786 10.0418 17.499L8.35102 19.8864C7.85452 20.5874 6.75381 20.2925 6.67436 19.4371L6.40382 16.5242C6.37885 16.2553 6.23763 16.0107 6.01722 15.8546L3.62983 14.1638Z" fill="white"/>
<path d="M16.7942 3.93814C17.1379 3.45279 17.9 3.65697 17.955 4.24917L18.1422 6.26579C18.1595 6.45198 18.2573 6.62132 18.4099 6.72938L20.0627 7.8999C20.5481 8.24363 20.3439 9.00566 19.7517 9.06066L17.735 9.24796C17.5489 9.26525 17.3795 9.36301 17.2715 9.51561L16.1009 11.1684C15.7572 11.6538 14.9952 11.4496 14.9402 10.8574L14.7529 8.84076C14.7356 8.65457 14.6378 8.48524 14.4852 8.37717L12.8324 7.20665C12.3471 6.86293 12.5513 6.10089 13.1435 6.04589L15.1601 5.8586C15.3463 5.84131 15.5156 5.74354 15.6237 5.59094L16.7942 3.93814Z" fill="white"/>
</svg>
