<svg width="79" height="80" viewBox="0 0 79 80" fill="none" xmlns="http://www.w3.org/2000/svg">
<path fill-rule="evenodd" clip-rule="evenodd" d="M2.31518 18.6211C4.87031 13.8137 9.39093 10.3181 15.3497 8.72149L44.8336 0.8213C50.8053 -0.778823 56.4695 -0.0137023 61.0849 2.87545C65.668 5.74459 68.898 10.5052 70.4607 16.3374L77.9043 44.117C79.467 49.9493 79.0501 55.687 76.5156 60.4634C73.9631 65.2733 69.4403 68.7678 63.4686 70.368L33.9847 78.2681C28.013 79.8682 22.3489 79.1032 17.7335 76.214C13.1503 73.3448 9.92037 68.5843 8.3576 62.752L0.914087 34.9724C-0.649752 29.1361 -0.222819 23.3962 2.31518 18.6211ZM24.7717 34.593L24.5498 33.7651C24.3048 32.8506 24.8475 31.9106 25.762 31.6655L30.7296 30.3345C31.6441 30.0894 32.5842 30.6321 32.8292 31.5466L37.4879 48.9333C37.8555 50.305 37.0414 51.7151 35.6697 52.0826C33.3834 52.6953 32.0266 55.0451 32.6392 57.3316C33.2519 59.618 35.6018 60.9746 37.8881 60.362L51.1351 56.8125C53.4215 56.1998 54.7782 53.85 54.1656 51.5636C53.5529 49.2772 51.2031 47.9205 48.9166 48.5331C47.5449 48.9007 46.1349 48.0866 45.7673 46.7149L41.1086 29.3282C40.8635 28.4137 41.4064 27.4736 42.3207 27.2286L47.2884 25.8976C48.2027 25.6525 49.1429 26.1952 49.3879 27.1097L49.6098 27.9377C50.0999 29.7667 51.9798 30.8521 53.8089 30.362L55.4648 29.9184C57.2938 29.4283 58.3792 27.5482 57.8891 25.7192L56.4693 20.4204C55.6607 17.4025 52.5588 15.6116 49.5408 16.4202L19.0727 24.5841C16.0548 25.3928 14.2639 28.4948 15.0725 31.5127L16.4923 36.8115C16.9824 38.6405 18.8624 39.7259 20.6914 39.2358L22.3473 38.7921C24.1763 38.3021 25.2618 36.422 24.7717 34.593Z" fill="#298FFF"/>
</svg>
